<svg xmlns="http://www.w3.org/2000/svg" xmlns:xlink="http://www.w3.org/1999/xlink" width="206" height="104" viewBox="0 0 206 104"><defs><style>.a{fill:#fff;stroke:#707070;}.b{clip-path:url(#a);}.c{fill:#2d2d2d;}</style><clipPath id="a"><rect class="a" width="206" height="104"/></clipPath></defs><g class="b"><g transform="translate(-147.955 -107.806)"><path class="c" d="M187.965,151.1c4.739,15.3,17.063,26.8,28.211,38.3s22.117,25.034,22.851,41.036c1.055,23.007-19.392,43.186-17.359,66.127,1.768,19.953,21.183,35,41.076,37.347s39.66-5.409,56.969-15.49,33.192-22.627,51.214-31.372c25.981-12.606,55.1-16.722,83.394-22.484,20.819-4.239,42.426-9.966,57.935-24.487,11.893-11.136,19.238-27.242,18.9-43.531s-8.665-32.421-22.274-41.378c-21.093-13.883-49.014-8.924-73.319-2.073s-50.45,15.068-74.131,6.3c-23.719-8.781-38.408-32.275-59.061-46.873-22.589-15.966-54.264-19.2-81.409-17.4C195.44,96.825,180.894,128.274,187.965,151.1Z" transform="translate(-186.181 -94.684)"/><path class="c" d="M586.766,137.981l24.335,9.891c2.674,1.087,5.522,2.195,8.368,1.712,5.279-.9,8.242-7.186,7.294-12.456s-4.687-9.571-8.561-13.268c-5.056-4.826-10.7-9.19-17.177-11.809s-13.9-3.37-20.483-1.014c-4.919,1.761-13.856,8.2-12.522,14.424C569.34,131.613,581.849,135.983,586.766,137.981Z" transform="translate(-284.092 -98.515)"/></g></g></svg>